<svg width="76" height="64" viewBox="0 0 76 64" fill="none" xmlns="http://www.w3.org/2000/svg">
<rect y="0.160156" width="76" height="63" rx="10" fill="#1A3157"/>
<g clip-path="url(#clip0_3113_3140)">
<g clip-path="url(#clip1_3113_3140)">
<path d="M24.2269 30.332C23.1265 30.332 21.9951 31.213 21.9951 32.7551C21.9951 34.1649 22.9899 35.1607 24.2269 35.1607C25.2479 35.1607 25.703 34.4759 25.703 34.4759V34.7744C25.703 34.9155 25.8365 35.0729 26.0017 35.0729H26.7398V30.4373H25.703V31.0256C25.703 31.0256 25.2441 30.332 24.2269 30.332ZM24.4116 31.2799C25.3174 31.2799 25.7925 32.0759 25.7925 32.7548C25.7925 33.511 25.2284 34.2292 24.4135 34.2292C23.7323 34.2292 23.0499 33.6779 23.0499 32.7448C23.0499 31.9025 23.6371 31.2799 24.4116 31.2799Z" fill="white"/>
<path d="M28.1806 35.0725C28.0213 35.0725 27.8818 34.9583 27.8818 34.774V30.4369H28.9186V31.0105C29.1536 30.6577 29.6125 30.3301 30.3171 30.3301C31.4686 30.3301 32.0817 31.2473 32.0817 32.105V35.0725H31.3612C31.1723 35.0725 31.0449 34.9144 31.0449 34.7564V32.3333C31.0449 31.8579 30.7534 31.2805 30.0792 31.2805C29.3518 31.2805 28.9186 31.9674 28.9186 32.6142V35.0725H28.1806Z" fill="white"/>
<path d="M35.1048 30.3315C34.0044 30.3315 32.873 31.2126 32.873 32.7547C32.873 34.1645 33.8678 35.1603 35.1048 35.1603C36.1258 35.1603 36.5809 34.4755 36.5809 34.4755V34.774C36.5809 34.915 36.7144 35.0725 36.8796 35.0725H37.6177V28.1191H36.5809V31.0251C36.5809 31.0251 36.122 30.3315 35.1048 30.3315ZM35.2895 31.2794C36.1953 31.2794 36.6704 32.0754 36.6704 32.7543C36.6704 33.5106 36.1063 34.2287 35.2914 34.2287C34.6102 34.2287 33.9278 33.6775 33.9278 32.7444C33.9278 31.902 34.515 31.2794 35.2895 31.2794Z" fill="white"/>
<path d="M39.0586 35.0731C38.8993 35.0731 38.7598 34.9589 38.7598 34.7746V30.4375H39.7966V31.2101C39.9751 30.7773 40.3602 30.3848 41.0443 30.3848C41.235 30.3848 41.4133 30.4199 41.4133 30.4199V31.491C41.4133 31.491 41.1907 31.4032 40.9213 31.4032C40.1938 31.4032 39.7966 32.0902 39.7966 32.737V35.0731H39.0586Z" fill="white"/>
<path d="M47.704 35.0751C47.5447 35.0751 47.4053 34.9609 47.4053 34.7766V30.4395H48.4421V35.0751H47.704Z" fill="white"/>
<path d="M51.4827 30.3315C50.3824 30.3315 49.251 31.2126 49.251 32.7547C49.251 34.1645 50.2457 35.1603 51.4827 35.1603C52.5038 35.1603 52.9588 34.4755 52.9588 34.4755V34.774C52.9588 34.915 53.0923 35.0725 53.2576 35.0725H53.9956V28.1191H52.9588V31.0251C52.9588 31.0251 52.4999 30.3315 51.4827 30.3315ZM51.6674 31.2794C52.5732 31.2794 53.0483 32.0754 53.0483 32.7543C53.0483 33.5106 52.4842 34.2287 51.6693 34.2287C50.9881 34.2287 50.3058 33.6775 50.3058 32.7444C50.3058 31.902 50.893 31.2794 51.6674 31.2794Z" fill="white"/>
<path d="M47.917 29.4384C48.2956 29.4384 48.6025 29.1317 48.6025 28.7534C48.6025 28.3751 48.2956 28.0684 47.917 28.0684C47.5384 28.0684 47.2314 28.3751 47.2314 28.7534C47.2314 29.1317 47.5384 29.4384 47.917 29.4384Z" fill="white"/>
<path d="M44.1478 30.3301C42.9955 30.3301 41.7295 31.1896 41.7295 32.7466C41.7295 34.1654 42.8078 35.1606 44.1453 35.1606C45.7936 35.1606 46.5985 33.8365 46.5985 32.7556C46.5985 31.4291 45.5621 30.3301 44.1478 30.3301ZM44.1516 31.2976C44.9485 31.2976 45.5429 31.9393 45.5429 32.7495C45.5429 33.5737 44.9119 34.2097 44.154 34.2097C43.4504 34.2097 42.7665 33.6376 42.7665 32.7634C42.7665 31.8745 43.417 31.2976 44.1516 31.2976Z" fill="white"/>
<path d="M45.8045 12.559L48.4573 7.96731C48.6069 7.7099 48.5164 7.38292 48.2623 7.23334C48.0082 7.08376 47.6774 7.17072 47.5312 7.42814L44.8437 12.079C42.7932 11.1432 40.4852 10.6214 38.003 10.6214C35.5209 10.6214 33.2128 11.1432 31.1624 12.079L28.4749 7.42814C28.3252 7.17072 27.9979 7.08376 27.7403 7.23334C27.4827 7.38292 27.3957 7.7099 27.5454 7.96731L30.1981 12.559C25.6237 15.0357 22.5254 19.6621 22.0137 25.0781H53.9925C53.4807 19.6621 50.3823 15.0357 45.8045 12.559ZM30.6611 20.5909C29.9196 20.5909 29.3208 19.9891 29.3208 19.2517C29.3208 18.5107 29.9231 17.9124 30.6611 17.9124C31.4026 17.9124 32.0014 18.5142 32.0014 19.2517C32.0049 19.9891 31.4026 20.5909 30.6611 20.5909ZM45.3416 20.5909C44.6001 20.5909 44.0013 19.9891 44.0013 19.2517C44.0013 18.5107 44.6035 17.9124 45.3416 17.9124C46.0831 17.9124 46.6818 18.5142 46.6818 19.2517C46.6853 19.9891 46.0831 20.5909 45.3416 20.5909Z" fill="#3DDC84"/>
</g>
</g>
<path d="M14.2001 55.0102L14.6501 53.8102H19.3001L19.7501 55.0102H14.2001ZM16.9451 50.0302L15.1751 54.2002L15.0551 54.4702L13.4951 58.1602H12.0701L16.9451 47.1352L21.8201 58.1602H20.3951L18.8651 54.5602L18.7451 54.2602L16.9451 50.0302ZM27.4475 53.9602C27.4475 53.3902 27.3225 52.9602 27.0725 52.6702C26.8225 52.3802 26.4575 52.2352 25.9775 52.2352C25.6275 52.2352 25.3175 52.3102 25.0475 52.4602C24.7875 52.6002 24.5825 52.8002 24.4325 53.0602C24.2925 53.3202 24.2225 53.6202 24.2225 53.9602V58.1602H23.0225V51.2602H24.2225V52.3402C24.4525 51.9202 24.7375 51.6102 25.0775 51.4102C25.4275 51.2102 25.8275 51.1102 26.2775 51.1102C27.0075 51.1102 27.5825 51.3552 28.0025 51.8452C28.4325 52.3252 28.6475 52.9802 28.6475 53.8102V58.1602H27.4475V53.9602ZM36.0783 46.4602H37.2783V58.1602H36.0783V46.4602ZM30.3033 54.7102C30.3033 53.9602 30.4583 53.3202 30.7683 52.7902C31.0783 52.2502 31.4933 51.8352 32.0133 51.5452C32.5333 51.2552 33.1033 51.1102 33.7233 51.1102C34.3033 51.1102 34.8083 51.2552 35.2383 51.5452C35.6683 51.8352 36.0033 52.2502 36.2433 52.7902C36.4933 53.3202 36.6183 53.9602 36.6183 54.7102C36.6183 55.4502 36.4933 56.0902 36.2433 56.6302C36.0033 57.1702 35.6683 57.5852 35.2383 57.8752C34.8083 58.1652 34.3033 58.3102 33.7233 58.3102C33.1033 58.3102 32.5333 58.1652 32.0133 57.8752C31.4933 57.5852 31.0783 57.1702 30.7683 56.6302C30.4583 56.0902 30.3033 55.4502 30.3033 54.7102ZM31.5183 54.7102C31.5183 55.2402 31.6233 55.6902 31.8333 56.0602C32.0533 56.4302 32.3433 56.7102 32.7033 56.9002C33.0633 57.0902 33.4533 57.1852 33.8733 57.1852C34.2233 57.1852 34.5683 57.0902 34.9083 56.9002C35.2483 56.7102 35.5283 56.4302 35.7483 56.0602C35.9683 55.6902 36.0783 55.2402 36.0783 54.7102C36.0783 54.1802 35.9683 53.7302 35.7483 53.3602C35.5283 52.9902 35.2483 52.7102 34.9083 52.5202C34.5683 52.3302 34.2233 52.2352 33.8733 52.2352C33.4533 52.2352 33.0633 52.3302 32.7033 52.5202C32.3433 52.7102 32.0533 52.9902 31.8333 53.3602C31.6233 53.7302 31.5183 54.1802 31.5183 54.7102ZM40.658 51.2602V58.1602H39.458V51.2602H40.658ZM42.743 52.5802C42.583 52.4602 42.438 52.3752 42.308 52.3252C42.178 52.2652 42.013 52.2352 41.813 52.2352C41.513 52.2352 41.278 52.3102 41.108 52.4602C40.938 52.6102 40.818 52.8152 40.748 53.0752C40.688 53.3352 40.658 53.6302 40.658 53.9602H40.118C40.118 53.4102 40.213 52.9252 40.403 52.5052C40.603 52.0752 40.858 51.7352 41.168 51.4852C41.478 51.2352 41.793 51.1102 42.113 51.1102C42.363 51.1102 42.593 51.1452 42.803 51.2152C43.023 51.2752 43.223 51.4002 43.403 51.5902L42.743 52.5802ZM43.7799 54.7102C43.7799 54.0102 43.9349 53.3902 44.2449 52.8502C44.5649 52.3102 44.9949 51.8852 45.5349 51.5752C46.0749 51.2652 46.6799 51.1102 47.3499 51.1102C48.0299 51.1102 48.6349 51.2652 49.1649 51.5752C49.7049 51.8852 50.1299 52.3102 50.4399 52.8502C50.7599 53.3902 50.9199 54.0102 50.9199 54.7102C50.9199 55.4002 50.7599 56.0202 50.4399 56.5702C50.1299 57.1102 49.7049 57.5352 49.1649 57.8452C48.6349 58.1552 48.0299 58.3102 47.3499 58.3102C46.6799 58.3102 46.0749 58.1552 45.5349 57.8452C44.9949 57.5352 44.5649 57.1102 44.2449 56.5702C43.9349 56.0202 43.7799 55.4002 43.7799 54.7102ZM44.9949 54.7102C44.9949 55.1902 45.0949 55.6152 45.2949 55.9852C45.5049 56.3552 45.7849 56.6502 46.1349 56.8702C46.4949 57.0802 46.8999 57.1852 47.3499 57.1852C47.7999 57.1852 48.1999 57.0802 48.5499 56.8702C48.9099 56.6502 49.1899 56.3552 49.3899 55.9852C49.5999 55.6152 49.7049 55.1902 49.7049 54.7102C49.7049 54.2302 49.5999 53.8052 49.3899 53.4352C49.1899 53.0552 48.9099 52.7602 48.5499 52.5502C48.1999 52.3402 47.7999 52.2352 47.3499 52.2352C46.8999 52.2352 46.4949 52.3402 46.1349 52.5502C45.7849 52.7602 45.5049 53.0552 45.2949 53.4352C45.0949 53.8052 44.9949 54.2302 44.9949 54.7102ZM52.5684 48.4102C52.5684 48.1802 52.6484 47.9852 52.8084 47.8252C52.9784 47.6652 53.1734 47.5852 53.3934 47.5852C53.6234 47.5852 53.8184 47.6652 53.9784 47.8252C54.1384 47.9852 54.2184 48.1802 54.2184 48.4102C54.2184 48.6302 54.1384 48.8252 53.9784 48.9952C53.8184 49.1552 53.6234 49.2352 53.3934 49.2352C53.1734 49.2352 52.9784 49.1552 52.8084 48.9952C52.6484 48.8252 52.5684 48.6302 52.5684 48.4102ZM52.7934 51.2602H53.9934V58.1602H52.7934V51.2602ZM61.6398 46.4602H62.8398V58.1602H61.6398V46.4602ZM55.8648 54.7102C55.8648 53.9602 56.0198 53.3202 56.3298 52.7902C56.6398 52.2502 57.0548 51.8352 57.5748 51.5452C58.0948 51.2552 58.6648 51.1102 59.2848 51.1102C59.8648 51.1102 60.3698 51.2552 60.7998 51.5452C61.2298 51.8352 61.5648 52.2502 61.8048 52.7902C62.0548 53.3202 62.1798 53.9602 62.1798 54.7102C62.1798 55.4502 62.0548 56.0902 61.8048 56.6302C61.5648 57.1702 61.2298 57.5852 60.7998 57.8752C60.3698 58.1652 59.8648 58.3102 59.2848 58.3102C58.6648 58.3102 58.0948 58.1652 57.5748 57.8752C57.0548 57.5852 56.6398 57.1702 56.3298 56.6302C56.0198 56.0902 55.8648 55.4502 55.8648 54.7102ZM57.0798 54.7102C57.0798 55.2402 57.1848 55.6902 57.3948 56.0602C57.6148 56.4302 57.9048 56.7102 58.2648 56.9002C58.6248 57.0902 59.0148 57.1852 59.4348 57.1852C59.7848 57.1852 60.1298 57.0902 60.4698 56.9002C60.8098 56.7102 61.0898 56.4302 61.3098 56.0602C61.5298 55.6902 61.6398 55.2402 61.6398 54.7102C61.6398 54.1802 61.5298 53.7302 61.3098 53.3602C61.0898 52.9902 60.8098 52.7102 60.4698 52.5202C60.1298 52.3302 59.7848 52.2352 59.4348 52.2352C59.0148 52.2352 58.6248 52.3302 58.2648 52.5202C57.9048 52.7102 57.6148 52.9902 57.3948 53.3602C57.1848 53.7302 57.0798 54.1802 57.0798 54.7102Z" fill="#90A2BD"/>
<defs>
<clipPath id="clip0_3113_3140">
<rect width="42" height="42" fill="white" transform="translate(16.9951 0.160156)"/>
</clipPath>
<clipPath id="clip1_3113_3140">
<rect width="42" height="42" fill="white" transform="translate(16.9951 0.160156)"/>
</clipPath>
</defs>
</svg>
