<svg width="76" height="64" viewBox="0 0 76 64" fill="none" xmlns="http://www.w3.org/2000/svg">
<rect y="0.160156" width="76" height="63" rx="10" fill="#1A3157"/>
<g clip-path="url(#clip0_3113_3141)">
<g clip-path="url(#clip1_3113_3141)">
<path d="M43.4445 5.20947C43.5766 6.93499 43.0308 8.64404 41.9233 9.97375C41.3928 10.6333 40.7197 11.1641 39.9544 11.5259C39.1893 11.8877 38.352 12.0712 37.5056 12.0625C37.4515 11.2327 37.5616 10.4004 37.8294 9.61318C38.0973 8.82597 38.5177 8.09926 39.0665 7.47461C40.1891 6.19597 41.7522 5.38721 43.4445 5.20947Z" fill="white"/>
<path d="M46.532 17.7678C45.9696 18.7587 45.667 19.8756 45.6523 21.0148C45.6538 22.2962 46.0322 23.5489 46.7408 24.6167C47.4494 25.6844 48.4565 26.52 49.6367 27.0191C49.1727 28.5265 48.4733 29.9511 47.5643 31.24C46.3435 33.066 45.0637 34.85 43.0322 34.8829C42.0661 34.9053 41.414 34.6275 40.7343 34.338C40.0255 34.036 39.2869 33.7213 38.131 33.7213C36.9052 33.7213 36.1334 34.0461 35.3892 34.3594C34.7459 34.6301 34.1232 34.8921 33.2456 34.9286C31.311 35.0001 29.8325 32.9796 28.5674 31.1706C26.0388 27.4765 24.0699 20.7599 26.7095 16.1898C27.3189 15.0947 28.2015 14.1763 29.2714 13.5237C30.3412 12.8713 31.5619 12.507 32.8145 12.4666C33.9117 12.444 34.9646 12.8669 35.8876 13.2378C36.5936 13.5213 37.2236 13.7743 37.7395 13.7743C38.193 13.7743 38.8056 13.5313 39.5193 13.248C40.6436 12.8017 42.0194 12.2557 43.4214 12.4029C44.4958 12.4365 45.5475 12.7202 46.4932 13.2314C47.4388 13.7426 48.2522 14.4673 48.8688 15.3478C47.8982 15.9445 47.0944 16.777 46.532 17.7678Z" fill="white"/>
</g>
</g>
<path d="M27.125 48.4102C27.125 48.1802 27.205 47.9852 27.365 47.8252C27.535 47.6652 27.73 47.5852 27.95 47.5852C28.18 47.5852 28.375 47.6652 28.535 47.8252C28.695 47.9852 28.775 48.1802 28.775 48.4102C28.775 48.6302 28.695 48.8252 28.535 48.9952C28.375 49.1552 28.18 49.2352 27.95 49.2352C27.73 49.2352 27.535 49.1552 27.365 48.9952C27.205 48.8252 27.125 48.6302 27.125 48.4102ZM27.35 51.2602H28.55V58.1602H27.35V51.2602ZM31.8465 52.9102C31.8465 53.7002 32.0165 54.4052 32.3565 55.0252C32.7065 55.6452 33.1815 56.1352 33.7815 56.4952C34.3815 56.8552 35.0615 57.0352 35.8215 57.0352C36.5915 57.0352 37.2715 56.8552 37.8615 56.4952C38.4615 56.1352 38.9315 55.6452 39.2715 55.0252C39.6215 54.4052 39.7965 53.7002 39.7965 52.9102C39.7965 52.1202 39.6215 51.4152 39.2715 50.7952C38.9315 50.1752 38.4615 49.6852 37.8615 49.3252C37.2715 48.9652 36.5915 48.7852 35.8215 48.7852C35.0615 48.7852 34.3815 48.9652 33.7815 49.3252C33.1815 49.6852 32.7065 50.1752 32.3565 50.7952C32.0165 51.4152 31.8465 52.1202 31.8465 52.9102ZM30.4965 52.9102C30.4965 52.1402 30.6265 51.4302 30.8865 50.7802C31.1565 50.1202 31.5315 49.5502 32.0115 49.0702C32.4915 48.5802 33.0565 48.2002 33.7065 47.9302C34.3565 47.6502 35.0615 47.5102 35.8215 47.5102C36.5915 47.5102 37.2965 47.6502 37.9365 47.9302C38.5865 48.2002 39.1515 48.5802 39.6315 49.0702C40.1115 49.5502 40.4815 50.1202 40.7415 50.7802C41.0115 51.4302 41.1465 52.1402 41.1465 52.9102C41.1465 53.6702 41.0115 54.3802 40.7415 55.0402C40.4815 55.7002 40.1115 56.2752 39.6315 56.7652C39.1515 57.2452 38.5865 57.6252 37.9365 57.9052C37.2965 58.1752 36.5915 58.3102 35.8215 58.3102C35.0615 58.3102 34.3565 58.1752 33.7065 57.9052C33.0565 57.6252 32.4915 57.2452 32.0115 56.7652C31.5315 56.2752 31.1565 55.7002 30.8865 55.0402C30.6265 54.3802 30.4965 53.6702 30.4965 52.9102ZM43.3371 54.9802C43.5771 55.4002 43.8271 55.7702 44.0871 56.0902C44.3571 56.4102 44.6571 56.6602 44.9871 56.8402C45.3171 57.0202 45.6921 57.1102 46.1121 57.1102C46.6721 57.1102 47.1221 56.9552 47.4621 56.6452C47.8021 56.3352 47.9721 55.9402 47.9721 55.4602C47.9721 54.9902 47.8621 54.6152 47.6421 54.3352C47.4221 54.0552 47.1321 53.8302 46.7721 53.6602C46.4221 53.4802 46.0471 53.3202 45.6471 53.1802C45.3871 53.0902 45.0971 52.9752 44.7771 52.8352C44.4571 52.6852 44.1521 52.5002 43.8621 52.2802C43.5721 52.0502 43.3321 51.7702 43.1421 51.4402C42.9621 51.1102 42.8721 50.7052 42.8721 50.2252C42.8721 49.7052 43.0021 49.2402 43.2621 48.8302C43.5221 48.4202 43.8821 48.1002 44.3421 47.8702C44.8021 47.6302 45.3271 47.5102 45.9171 47.5102C46.4871 47.5102 46.9821 47.6202 47.4021 47.8402C47.8321 48.0502 48.1971 48.3252 48.4971 48.6652C48.7971 48.9952 49.0321 49.3452 49.2021 49.7152L48.1071 50.3452C47.9771 50.0852 47.8121 49.8302 47.6121 49.5802C47.4121 49.3302 47.1671 49.1252 46.8771 48.9652C46.5971 48.8052 46.2521 48.7252 45.8421 48.7252C45.2721 48.7252 44.8571 48.8652 44.5971 49.1452C44.3371 49.4152 44.2071 49.7202 44.2071 50.0602C44.2071 50.3502 44.2821 50.6202 44.4321 50.8702C44.5821 51.1102 44.8321 51.3402 45.1821 51.5602C45.5421 51.7702 46.0271 51.9802 46.6371 52.1902C46.9171 52.2902 47.2121 52.4202 47.5221 52.5802C47.8321 52.7402 48.1171 52.9452 48.3771 53.1952C48.6471 53.4352 48.8671 53.7302 49.0371 54.0802C49.2071 54.4202 49.2921 54.8302 49.2921 55.3102C49.2921 55.7702 49.2021 56.1852 49.0221 56.5552C48.8521 56.9252 48.6121 57.2402 48.3021 57.5002C48.0021 57.7602 47.6571 57.9602 47.2671 58.1002C46.8871 58.2402 46.4871 58.3102 46.0671 58.3102C45.4971 58.3102 44.9671 58.1902 44.4771 57.9502C43.9971 57.7002 43.5721 57.3752 43.2021 56.9752C42.8421 56.5652 42.5471 56.1302 42.3171 55.6702L43.3371 54.9802Z" fill="#90A2BD"/>
<defs>
<clipPath id="clip0_3113_3141">
<rect width="42" height="42" fill="white" transform="translate(17 0.160156)"/>
</clipPath>
<clipPath id="clip1_3113_3141">
<rect width="42" height="42" fill="white" transform="translate(17 0.160156)"/>
</clipPath>
</defs>
</svg>
