<svg width="160" height="55" viewBox="0 0 160 55" fill="none" xmlns="http://www.w3.org/2000/svg">
<rect y="0.160156" width="160" height="54" rx="8" fill="#1A3157"/>
<g clip-path="url(#clip0_3113_3138)">
<g clip-path="url(#clip1_3113_3138)">
<path d="M36.4445 11.2095C36.5766 12.935 36.0308 14.644 34.9233 15.9738C34.3928 16.6333 33.7197 17.1641 32.9544 17.5259C32.1893 17.8877 31.352 18.0712 30.5056 18.0625C30.4515 17.2327 30.5616 16.4004 30.8294 15.6132C31.0973 14.826 31.5177 14.0993 32.0665 13.4746C33.1891 12.196 34.7522 11.3872 36.4445 11.2095Z" fill="white"/>
<path d="M39.532 23.7678C38.9696 24.7587 38.667 25.8756 38.6523 27.0148C38.6538 28.2962 39.0322 29.5489 39.7408 30.6167C40.4494 31.6844 41.4565 32.52 42.6367 33.0191C42.1727 34.5265 41.4733 35.9511 40.5643 37.24C39.3435 39.066 38.0637 40.85 36.0322 40.8829C35.0661 40.9053 34.414 40.6275 33.7343 40.338C33.0255 40.036 32.2869 39.7213 31.131 39.7213C29.9052 39.7213 29.1334 40.0461 28.3892 40.3594C27.7459 40.6301 27.1232 40.8921 26.2456 40.9286C24.311 41.0001 22.8325 38.9796 21.5674 37.1706C19.0388 33.4765 17.0699 26.7599 19.7095 22.1898C20.3189 21.0947 21.2015 20.1763 22.2714 19.5237C23.3412 18.8713 24.5619 18.507 25.8145 18.4666C26.9117 18.444 27.9646 18.8669 28.8876 19.2378C29.5936 19.5213 30.2236 19.7743 30.7395 19.7743C31.193 19.7743 31.8056 19.5313 32.5193 19.248C33.6436 18.8017 35.0194 18.2557 36.4214 18.4029C37.4958 18.4365 38.5475 18.7202 39.4932 19.2314C40.4388 19.7426 41.2522 20.4673 41.8688 21.3478C40.8982 21.9445 40.0944 22.777 39.532 23.7678Z" fill="white"/>
</g>
</g>
<path d="M54.52 16.7452V15.8752H56.215C56.545 15.8752 56.835 15.8202 57.085 15.7102C57.335 15.6002 57.53 15.4452 57.67 15.2452C57.81 15.0352 57.88 14.7852 57.88 14.4952C57.88 14.0552 57.725 13.7152 57.415 13.4752C57.105 13.2352 56.705 13.1152 56.215 13.1152H54.94V20.7052H56.41C56.81 20.7052 57.165 20.6402 57.475 20.5102C57.785 20.3802 58.03 20.1852 58.21 19.9252C58.39 19.6652 58.48 19.3402 58.48 18.9502C58.48 18.6702 58.425 18.4252 58.315 18.2152C58.215 17.9952 58.07 17.8152 57.88 17.6752C57.7 17.5252 57.485 17.4202 57.235 17.3602C56.985 17.2902 56.71 17.2552 56.41 17.2552H54.52V16.2802H56.515C57.025 16.2802 57.505 16.3352 57.955 16.4452C58.405 16.5552 58.805 16.7252 59.155 16.9552C59.515 17.1852 59.795 17.4802 59.995 17.8402C60.195 18.2002 60.295 18.6302 60.295 19.1302C60.295 19.8202 60.13 20.3902 59.8 20.8402C59.48 21.2902 59.035 21.6252 58.465 21.8452C57.905 22.0552 57.255 22.1602 56.515 22.1602H53.17V11.6602H56.335C56.995 11.6602 57.575 11.7552 58.075 11.9452C58.585 12.1352 58.98 12.4252 59.26 12.8152C59.55 13.2052 59.695 13.7002 59.695 14.3002C59.695 14.8202 59.55 15.2652 59.26 15.6352C58.98 15.9952 58.585 16.2702 58.075 16.4602C57.575 16.6502 56.995 16.7452 56.335 16.7452H54.52ZM62.0291 10.4602H63.6491V22.1602H62.0291V10.4602ZM67.3855 19.4602C67.3855 19.9502 67.4905 20.3302 67.7005 20.6002C67.9105 20.8702 68.2305 21.0052 68.6605 21.0052C68.9705 21.0052 69.2405 20.9452 69.4705 20.8252C69.7005 20.6952 69.8805 20.5152 70.0105 20.2852C70.1405 20.0452 70.2055 19.7702 70.2055 19.4602V15.2602H71.8255V22.1602H70.2055V21.0952C69.9855 21.4952 69.7005 21.8002 69.3505 22.0102C69.0105 22.2102 68.6005 22.3102 68.1205 22.3102C67.3505 22.3102 66.7555 22.0702 66.3355 21.5902C65.9255 21.1102 65.7205 20.4602 65.7205 19.6402V15.2602H67.3855V19.4602ZM76.8944 22.3102C76.1944 22.3102 75.5744 22.1602 75.0344 21.8602C74.5044 21.5602 74.0944 21.1402 73.8044 20.6002C73.5144 20.0602 73.3694 19.4302 73.3694 18.7102C73.3694 17.9802 73.5144 17.3452 73.8044 16.8052C74.1044 16.2652 74.5244 15.8502 75.0644 15.5602C75.6044 15.2602 76.2394 15.1102 76.9694 15.1102C77.6994 15.1102 78.3194 15.2502 78.8294 15.5302C79.3394 15.8102 79.7294 16.2152 79.9994 16.7452C80.2794 17.2652 80.4194 17.8952 80.4194 18.6352C80.4194 18.7152 80.4144 18.8002 80.4044 18.8902C80.4044 18.9802 80.3994 19.0452 80.3894 19.0852H74.3294V17.9752H79.0094L78.5144 18.6652C78.5444 18.6052 78.5744 18.5252 78.6044 18.4252C78.6444 18.3152 78.6644 18.2252 78.6644 18.1552C78.6644 17.7852 78.5894 17.4652 78.4394 17.1952C78.2994 16.9252 78.0994 16.7152 77.8394 16.5652C77.5894 16.4152 77.2944 16.3402 76.9544 16.3402C76.5444 16.3402 76.1944 16.4302 75.9044 16.6102C75.6144 16.7902 75.3944 17.0502 75.2444 17.3902C75.0944 17.7302 75.0144 18.1502 75.0044 18.6502C75.0044 19.1502 75.0794 19.5752 75.2294 19.9252C75.3794 20.2652 75.5994 20.5252 75.8894 20.7052C76.1894 20.8852 76.5494 20.9752 76.9694 20.9752C77.4094 20.9752 77.7944 20.8852 78.1244 20.7052C78.4544 20.5252 78.7294 20.2502 78.9494 19.8802L80.3444 20.4502C79.9844 21.0702 79.5194 21.5352 78.9494 21.8452C78.3794 22.1552 77.6944 22.3102 76.8944 22.3102ZM83.0457 18.7102C83.0457 19.1502 83.1407 19.5352 83.3307 19.8652C83.5207 20.1852 83.7757 20.4402 84.0957 20.6302C84.4257 20.8202 84.7907 20.9152 85.1907 20.9152C85.5207 20.9152 85.8357 20.8652 86.1357 20.7652C86.4357 20.6652 86.7007 20.5252 86.9307 20.3452C87.1607 20.1652 87.3307 19.9652 87.4407 19.7452V21.5302C87.2007 21.7702 86.8757 21.9602 86.4657 22.1002C86.0557 22.2402 85.6057 22.3102 85.1157 22.3102C84.4057 22.3102 83.7657 22.1602 83.1957 21.8602C82.6357 21.5502 82.1907 21.1252 81.8607 20.5852C81.5407 20.0352 81.3807 19.4102 81.3807 18.7102C81.3807 18.0002 81.5407 17.3752 81.8607 16.8352C82.1907 16.2952 82.6357 15.8752 83.1957 15.5752C83.7657 15.2652 84.4057 15.1102 85.1157 15.1102C85.6057 15.1102 86.0557 15.1802 86.4657 15.3202C86.8757 15.4602 87.2007 15.6502 87.4407 15.8902V17.6752C87.3307 17.4452 87.1557 17.2452 86.9157 17.0752C86.6857 16.8952 86.4207 16.7552 86.1207 16.6552C85.8207 16.5552 85.5107 16.5052 85.1907 16.5052C84.7907 16.5052 84.4257 16.6002 84.0957 16.7902C83.7757 16.9802 83.5207 17.2402 83.3307 17.5702C83.1407 17.9002 83.0457 18.2802 83.0457 18.7102ZM90.8513 10.4602V22.1602H89.2313V10.4602H90.8513ZM93.6713 17.9602C93.6713 17.4502 93.5663 17.0652 93.3563 16.8052C93.1563 16.5452 92.8313 16.4152 92.3813 16.4152C92.0813 16.4152 91.8163 16.4802 91.5863 16.6102C91.3563 16.7402 91.1763 16.9202 91.0463 17.1502C90.9163 17.3802 90.8513 17.6502 90.8513 17.9602H90.4613C90.4613 17.4102 90.5613 16.9202 90.7613 16.4902C90.9613 16.0602 91.2413 15.7152 91.6013 15.4552C91.9713 15.1952 92.4163 15.0652 92.9363 15.0652C93.4463 15.0652 93.8763 15.1652 94.2263 15.3652C94.5863 15.5652 94.8563 15.8652 95.0363 16.2652C95.2163 16.6552 95.3063 17.1452 95.3063 17.7352V22.1602H93.6713V17.9602ZM97.3012 12.5152C97.3012 12.2352 97.4012 12.0002 97.6012 11.8102C97.8112 11.6202 98.0512 11.5252 98.3212 11.5252C98.6112 11.5252 98.8512 11.6202 99.0412 11.8102C99.2412 12.0002 99.3412 12.2352 99.3412 12.5152C99.3412 12.7852 99.2412 13.0202 99.0412 13.2202C98.8512 13.4102 98.6112 13.5052 98.3212 13.5052C98.0512 13.5052 97.8112 13.4102 97.6012 13.2202C97.4012 13.0202 97.3012 12.7852 97.3012 12.5152ZM97.5262 15.2602H99.1162V22.1602H97.5262V15.2602ZM102.921 25.4602H101.286V15.2602H102.921V25.4602ZM108.636 18.7102C108.636 19.4702 108.481 20.1252 108.171 20.6752C107.861 21.2152 107.451 21.6302 106.941 21.9202C106.431 22.2002 105.876 22.3402 105.276 22.3402C104.686 22.3402 104.171 22.1952 103.731 21.9052C103.301 21.6052 102.966 21.1852 102.726 20.6452C102.496 20.0952 102.381 19.4502 102.381 18.7102C102.381 17.9602 102.496 17.3152 102.726 16.7752C102.966 16.2352 103.301 15.8202 103.731 15.5302C104.171 15.2302 104.686 15.0802 105.276 15.0802C105.876 15.0802 106.431 15.2252 106.941 15.5152C107.451 15.7952 107.861 16.2052 108.171 16.7452C108.481 17.2852 108.636 17.9402 108.636 18.7102ZM106.956 18.7102C106.956 18.2502 106.861 17.8602 106.671 17.5402C106.481 17.2102 106.226 16.9652 105.906 16.8052C105.596 16.6352 105.251 16.5502 104.871 16.5502C104.561 16.5502 104.256 16.6352 103.956 16.8052C103.656 16.9652 103.406 17.2052 103.206 17.5252C103.016 17.8452 102.921 18.2402 102.921 18.7102C102.921 19.1802 103.016 19.5752 103.206 19.8952C103.406 20.2152 103.656 20.4602 103.956 20.6302C104.256 20.7902 104.561 20.8702 104.871 20.8702C105.251 20.8702 105.596 20.7902 105.906 20.6302C106.226 20.4602 106.481 20.2152 106.671 19.8952C106.861 19.5652 106.956 19.1702 106.956 18.7102ZM116.071 19.4602L116.401 17.9602H121.276L121.621 19.4602H116.071ZM118.816 14.6302L117.166 18.4852L117.136 18.8752L115.681 22.1602H113.686L118.816 11.0752L123.946 22.1602H121.951L120.526 18.9652L120.481 18.5302L118.816 14.6302ZM126.607 25.4602H124.972V15.2602H126.607V25.4602ZM132.322 18.7102C132.322 19.4702 132.167 20.1252 131.857 20.6752C131.547 21.2152 131.137 21.6302 130.627 21.9202C130.117 22.2002 129.562 22.3402 128.962 22.3402C128.372 22.3402 127.857 22.1952 127.417 21.9052C126.987 21.6052 126.652 21.1852 126.412 20.6452C126.182 20.0952 126.067 19.4502 126.067 18.7102C126.067 17.9602 126.182 17.3152 126.412 16.7752C126.652 16.2352 126.987 15.8202 127.417 15.5302C127.857 15.2302 128.372 15.0802 128.962 15.0802C129.562 15.0802 130.117 15.2252 130.627 15.5152C131.137 15.7952 131.547 16.2052 131.857 16.7452C132.167 17.2852 132.322 17.9402 132.322 18.7102ZM130.642 18.7102C130.642 18.2502 130.547 17.8602 130.357 17.5402C130.167 17.2102 129.912 16.9652 129.592 16.8052C129.282 16.6352 128.937 16.5502 128.557 16.5502C128.247 16.5502 127.942 16.6352 127.642 16.8052C127.342 16.9652 127.092 17.2052 126.892 17.5252C126.702 17.8452 126.607 18.2402 126.607 18.7102C126.607 19.1802 126.702 19.5752 126.892 19.8952C127.092 20.2152 127.342 20.4602 127.642 20.6302C127.942 20.7902 128.247 20.8702 128.557 20.8702C128.937 20.8702 129.282 20.7902 129.592 20.6302C129.912 20.4602 130.167 20.2152 130.357 19.8952C130.547 19.5652 130.642 19.1702 130.642 18.7102ZM135.44 25.4602H133.805V15.2602H135.44V25.4602ZM141.155 18.7102C141.155 19.4702 141 20.1252 140.69 20.6752C140.38 21.2152 139.97 21.6302 139.46 21.9202C138.95 22.2002 138.395 22.3402 137.795 22.3402C137.205 22.3402 136.69 22.1952 136.25 21.9052C135.82 21.6052 135.485 21.1852 135.245 20.6452C135.015 20.0952 134.9 19.4502 134.9 18.7102C134.9 17.9602 135.015 17.3152 135.245 16.7752C135.485 16.2352 135.82 15.8202 136.25 15.5302C136.69 15.2302 137.205 15.0802 137.795 15.0802C138.395 15.0802 138.95 15.2252 139.46 15.5152C139.97 15.7952 140.38 16.2052 140.69 16.7452C141 17.2852 141.155 17.9402 141.155 18.7102ZM139.475 18.7102C139.475 18.2502 139.38 17.8602 139.19 17.5402C139 17.2102 138.745 16.9652 138.425 16.8052C138.115 16.6352 137.77 16.5502 137.39 16.5502C137.08 16.5502 136.775 16.6352 136.475 16.8052C136.175 16.9652 135.925 17.2052 135.725 17.5252C135.535 17.8452 135.44 18.2402 135.44 18.7102C135.44 19.1802 135.535 19.5752 135.725 19.8952C135.925 20.2152 136.175 20.4602 136.475 20.6302C136.775 20.7902 137.08 20.8702 137.39 20.8702C137.77 20.8702 138.115 20.7902 138.425 20.6302C138.745 20.4602 139 20.2152 139.19 19.8952C139.38 19.5652 139.475 19.1702 139.475 18.7102ZM52.465 36.2602H56.425V37.6852H52.465V36.2602ZM56.245 33.2002C56.145 33.0402 56.03 32.9352 55.9 32.8852C55.78 32.8352 55.655 32.8102 55.525 32.8102C55.375 32.8102 55.245 32.8502 55.135 32.9302C55.035 33.0102 54.955 33.1402 54.895 33.3202C54.835 33.5002 54.805 33.7352 54.805 34.0252V43.1602H53.215V33.7102C53.215 33.1702 53.3 32.7252 53.47 32.3752C53.65 32.0152 53.905 31.7452 54.235 31.5652C54.565 31.3752 54.97 31.2802 55.45 31.2802C55.72 31.2802 55.955 31.3152 56.155 31.3852C56.355 31.4552 56.525 31.5402 56.665 31.6402C56.815 31.7402 56.93 31.8402 57.01 31.9402L56.245 33.2002ZM57.1389 39.7102C57.1389 39.0002 57.2989 38.3752 57.6189 37.8352C57.9489 37.2952 58.3939 36.8752 58.9539 36.5752C59.5139 36.2652 60.1489 36.1102 60.8589 36.1102C61.5689 36.1102 62.1989 36.2652 62.7489 36.5752C63.3089 36.8752 63.7539 37.2952 64.0839 37.8352C64.4139 38.3752 64.5789 39.0002 64.5789 39.7102C64.5789 40.4102 64.4139 41.0352 64.0839 41.5852C63.7539 42.1252 63.3089 42.5502 62.7489 42.8602C62.1989 43.1602 61.5689 43.3102 60.8589 43.3102C60.1489 43.3102 59.5139 43.1602 58.9539 42.8602C58.3939 42.5502 57.9489 42.1252 57.6189 41.5852C57.2989 41.0352 57.1389 40.4102 57.1389 39.7102ZM58.8039 39.7102C58.8039 40.1402 58.8939 40.5202 59.0739 40.8502C59.2539 41.1702 59.4989 41.4252 59.8089 41.6152C60.1189 41.7952 60.4689 41.8852 60.8589 41.8852C61.2389 41.8852 61.5839 41.7952 61.8939 41.6152C62.2139 41.4252 62.4639 41.1702 62.6439 40.8502C62.8239 40.5202 62.9139 40.1402 62.9139 39.7102C62.9139 39.2802 62.8239 38.9002 62.6439 38.5702C62.4639 38.2402 62.2139 37.9852 61.8939 37.8052C61.5839 37.6252 61.2389 37.5352 60.8589 37.5352C60.4689 37.5352 60.1189 37.6252 59.8089 37.8052C59.4989 37.9852 59.2539 38.2402 59.0739 38.5702C58.8939 38.9002 58.8039 39.2802 58.8039 39.7102ZM67.7211 36.2602V43.1602H66.1161V36.2602H67.7211ZM69.7761 37.9852C69.6261 37.8652 69.4861 37.7752 69.3561 37.7152C69.2261 37.6552 69.0611 37.6252 68.8611 37.6252C68.5911 37.6252 68.3711 37.6952 68.2011 37.8352C68.0311 37.9752 67.9061 38.1702 67.8261 38.4202C67.7561 38.6602 67.7211 38.9452 67.7211 39.2752L67.1811 38.9602C67.1811 38.4102 67.2811 37.9252 67.4811 37.5052C67.6911 37.0752 67.9561 36.7352 68.2761 36.4852C68.6061 36.2352 68.9461 36.1102 69.2961 36.1102C69.5461 36.1102 69.7811 36.1502 70.0011 36.2302C70.2211 36.3002 70.4061 36.4302 70.5561 36.6202L69.7761 37.9852ZM78.2499 36.7702L77.5299 43.1602H75.6999L77.1399 32.1352L81.4449 39.2602L85.7649 32.1352L87.2049 43.1602H85.3749L84.6399 36.7702L81.4449 42.1852L78.2499 36.7702ZM89.8118 41.0152C89.8118 41.2452 89.8668 41.4452 89.9768 41.6152C90.0868 41.7752 90.2368 41.8952 90.4268 41.9752C90.6268 42.0552 90.8518 42.0952 91.1018 42.0952C91.4218 42.0952 91.7118 42.0302 91.9718 41.9002C92.2418 41.7702 92.4568 41.5802 92.6168 41.3302C92.7868 41.0702 92.8718 40.7702 92.8718 40.4302L93.1118 41.3302C93.1118 41.7702 92.9818 42.1402 92.7218 42.4402C92.4718 42.7302 92.1518 42.9502 91.7618 43.1002C91.3818 43.2402 90.9918 43.3102 90.5918 43.3102C90.1618 43.3102 89.7618 43.2252 89.3918 43.0552C89.0218 42.8852 88.7268 42.6352 88.5068 42.3052C88.2868 41.9752 88.1768 41.5752 88.1768 41.1052C88.1768 40.4352 88.4118 39.9052 88.8818 39.5152C89.3518 39.1152 90.0168 38.9152 90.8768 38.9152C91.3368 38.9152 91.7318 38.9652 92.0618 39.0652C92.4018 39.1652 92.6818 39.2852 92.9018 39.4252C93.1218 39.5552 93.2768 39.6752 93.3668 39.7852V40.6102C93.0568 40.3902 92.7268 40.2302 92.3768 40.1302C92.0268 40.0302 91.6568 39.9802 91.2668 39.9802C90.9268 39.9802 90.6518 40.0252 90.4418 40.1152C90.2318 40.1952 90.0718 40.3102 89.9618 40.4602C89.8618 40.6102 89.8118 40.7952 89.8118 41.0152ZM89.3018 38.0602L88.6418 36.9202C88.9518 36.7302 89.3518 36.5452 89.8418 36.3652C90.3418 36.1852 90.9118 36.0952 91.5518 36.0952C92.1218 36.0952 92.6218 36.1802 93.0518 36.3502C93.4918 36.5202 93.8368 36.7652 94.0868 37.0852C94.3368 37.3952 94.4618 37.7802 94.4618 38.2402V43.1602H92.8718V38.5552C92.8718 38.3352 92.8318 38.1552 92.7518 38.0152C92.6818 37.8752 92.5818 37.7602 92.4518 37.6702C92.3218 37.5802 92.1668 37.5152 91.9868 37.4752C91.8068 37.4352 91.6118 37.4152 91.4018 37.4152C91.0818 37.4152 90.7768 37.4552 90.4868 37.5352C90.2068 37.6052 89.9618 37.6952 89.7518 37.8052C89.5518 37.9052 89.4018 37.9902 89.3018 38.0602ZM97.4304 39.7102C97.4304 40.1502 97.5254 40.5352 97.7154 40.8652C97.9054 41.1852 98.1604 41.4402 98.4804 41.6302C98.8104 41.8202 99.1754 41.9152 99.5754 41.9152C99.9054 41.9152 100.22 41.8652 100.52 41.7652C100.82 41.6652 101.085 41.5252 101.315 41.3452C101.545 41.1652 101.715 40.9652 101.825 40.7452V42.5302C101.585 42.7702 101.26 42.9602 100.85 43.1002C100.44 43.2402 99.9904 43.3102 99.5004 43.3102C98.7904 43.3102 98.1504 43.1602 97.5804 42.8602C97.0204 42.5502 96.5754 42.1252 96.2454 41.5852C95.9254 41.0352 95.7654 40.4102 95.7654 39.7102C95.7654 39.0002 95.9254 38.3752 96.2454 37.8352C96.5754 37.2952 97.0204 36.8752 97.5804 36.5752C98.1504 36.2652 98.7904 36.1102 99.5004 36.1102C99.9904 36.1102 100.44 36.1802 100.85 36.3202C101.26 36.4602 101.585 36.6502 101.825 36.8902V38.6752C101.715 38.4452 101.54 38.2452 101.3 38.0752C101.07 37.8952 100.805 37.7552 100.505 37.6552C100.205 37.5552 99.8954 37.5052 99.5754 37.5052C99.1754 37.5052 98.8104 37.6002 98.4804 37.7902C98.1604 37.9802 97.9054 38.2402 97.7154 38.5702C97.5254 38.9002 97.4304 39.2802 97.4304 39.7102ZM109.523 37.9102C109.523 38.6302 109.673 39.2752 109.973 39.8452C110.283 40.4052 110.708 40.8452 111.248 41.1652C111.788 41.4852 112.403 41.6452 113.093 41.6452C113.793 41.6452 114.408 41.4852 114.938 41.1652C115.478 40.8452 115.898 40.4052 116.198 39.8452C116.508 39.2752 116.663 38.6302 116.663 37.9102C116.663 37.1902 116.513 36.5502 116.213 35.9902C115.913 35.4202 115.493 34.9752 114.953 34.6552C114.423 34.3352 113.803 34.1752 113.093 34.1752C112.403 34.1752 111.788 34.3352 111.248 34.6552C110.708 34.9752 110.283 35.4202 109.973 35.9902C109.673 36.5502 109.523 37.1902 109.523 37.9102ZM107.648 37.9102C107.648 37.1202 107.783 36.3952 108.053 35.7352C108.323 35.0752 108.703 34.5052 109.193 34.0252C109.693 33.5352 110.273 33.1552 110.933 32.8852C111.603 32.6152 112.323 32.4802 113.093 32.4802C113.883 32.4802 114.608 32.6152 115.268 32.8852C115.928 33.1552 116.503 33.5352 116.993 34.0252C117.493 34.5052 117.878 35.0752 118.148 35.7352C118.418 36.3952 118.553 37.1202 118.553 37.9102C118.553 38.6902 118.418 39.4152 118.148 40.0852C117.878 40.7552 117.498 41.3352 117.008 41.8252C116.518 42.3152 115.938 42.7002 115.268 42.9802C114.608 43.2502 113.883 43.3852 113.093 43.3852C112.313 43.3852 111.588 43.2502 110.918 42.9802C110.248 42.7002 109.668 42.3152 109.178 41.8252C108.698 41.3352 108.323 40.7552 108.053 40.0852C107.783 39.4152 107.648 38.6902 107.648 37.9102ZM120.964 39.7852C121.194 40.1852 121.439 40.5402 121.699 40.8502C121.969 41.1502 122.264 41.3852 122.584 41.5552C122.904 41.7152 123.264 41.7952 123.664 41.7952C124.144 41.7952 124.534 41.6652 124.834 41.4052C125.134 41.1452 125.284 40.8102 125.284 40.4002C125.284 40.0102 125.189 39.7002 124.999 39.4702C124.809 39.2302 124.544 39.0302 124.204 38.8702C123.874 38.7002 123.489 38.5352 123.049 38.3752C122.789 38.2852 122.499 38.1652 122.179 38.0152C121.859 37.8552 121.554 37.6602 121.264 37.4302C120.974 37.1902 120.734 36.9002 120.544 36.5602C120.354 36.2102 120.259 35.7902 120.259 35.3002C120.259 34.7402 120.404 34.2502 120.694 33.8302C120.984 33.4002 121.374 33.0702 121.864 32.8402C122.364 32.6002 122.929 32.4802 123.559 32.4802C124.179 32.4802 124.719 32.5902 125.179 32.8102C125.639 33.0302 126.024 33.3102 126.334 33.6502C126.654 33.9902 126.904 34.3452 127.084 34.7152L125.644 35.5252C125.514 35.2652 125.349 35.0252 125.149 34.8052C124.949 34.5752 124.714 34.3952 124.444 34.2652C124.184 34.1252 123.879 34.0552 123.529 34.0552C123.039 34.0552 122.679 34.1702 122.449 34.4002C122.219 34.6202 122.104 34.8802 122.104 35.1802C122.104 35.4502 122.184 35.6952 122.344 35.9152C122.514 36.1252 122.774 36.3252 123.124 36.5152C123.474 36.7052 123.929 36.9002 124.489 37.1002C124.799 37.2102 125.109 37.3502 125.419 37.5202C125.739 37.6902 126.029 37.9052 126.289 38.1652C126.549 38.4152 126.754 38.7102 126.904 39.0502C127.064 39.3902 127.144 39.7902 127.144 40.2502C127.144 40.7402 127.049 41.1802 126.859 41.5702C126.669 41.9602 126.409 42.2902 126.079 42.5602C125.749 42.8202 125.374 43.0202 124.954 43.1602C124.544 43.3102 124.114 43.3852 123.664 43.3852C123.044 43.3852 122.469 43.2652 121.939 43.0252C121.419 42.7752 120.964 42.4452 120.574 42.0352C120.184 41.6252 119.874 41.1802 119.644 40.7002L120.964 39.7852Z" fill="white"/>
<defs>
<clipPath id="clip0_3113_3138">
<rect width="42" height="42" fill="white" transform="translate(10 6.16016)"/>
</clipPath>
<clipPath id="clip1_3113_3138">
<rect width="42" height="42" fill="white" transform="translate(10 6.16016)"/>
</clipPath>
</defs>
</svg>
